<svg id="visual" viewBox="0 0 960 540" width="960" height="540" xmlns="http://www.w3.org/2000/svg" xmlns:xlink="http://www.w3.org/1999/xlink" version="1.1"><rect x="0" y="0" width="960" height="540" fill="#FFFFFF"></rect><defs><linearGradient id="grad1_0" x1="43.8%" y1="0%" x2="100%" y2="100%"><stop offset="14.444444444444446%" stop-color="#3c56fa" stop-opacity="1"></stop><stop offset="85.55555555555554%" stop-color="#3c56fa" stop-opacity="1"></stop></linearGradient></defs><defs><linearGradient id="grad1_1" x1="43.8%" y1="0%" x2="100%" y2="100%"><stop offset="14.444444444444446%" stop-color="#3c56fa" stop-opacity="1"></stop><stop offset="85.55555555555554%" stop-color="#6b6cfc" stop-opacity="1"></stop></linearGradient></defs><defs><linearGradient id="grad1_2" x1="43.8%" y1="0%" x2="100%" y2="100%"><stop offset="14.444444444444446%" stop-color="#8b83fd" stop-opacity="1"></stop><stop offset="85.55555555555554%" stop-color="#6b6cfc" stop-opacity="1"></stop></linearGradient></defs><defs><linearGradient id="grad1_3" x1="43.8%" y1="0%" x2="100%" y2="100%"><stop offset="14.444444444444446%" stop-color="#8b83fd" stop-opacity="1"></stop><stop offset="85.55555555555554%" stop-color="#a69bfe" stop-opacity="1"></stop></linearGradient></defs><defs><linearGradient id="grad1_4" x1="43.8%" y1="0%" x2="100%" y2="100%"><stop offset="14.444444444444446%" stop-color="#bfb3ff" stop-opacity="1"></stop><stop offset="85.55555555555554%" stop-color="#a69bfe" stop-opacity="1"></stop></linearGradient></defs><defs><linearGradient id="grad1_5" x1="43.8%" y1="0%" x2="100%" y2="100%"><stop offset="14.444444444444446%" stop-color="#bfb3ff" stop-opacity="1"></stop><stop offset="85.55555555555554%" stop-color="#d5ccff" stop-opacity="1"></stop></linearGradient></defs><defs><linearGradient id="grad1_6" x1="43.8%" y1="0%" x2="100%" y2="100%"><stop offset="14.444444444444446%" stop-color="#ebe5ff" stop-opacity="1"></stop><stop offset="85.55555555555554%" stop-color="#d5ccff" stop-opacity="1"></stop></linearGradient></defs><defs><linearGradient id="grad1_7" x1="43.8%" y1="0%" x2="100%" y2="100%"><stop offset="14.444444444444446%" stop-color="#ebe5ff" stop-opacity="1"></stop><stop offset="85.55555555555554%" stop-color="#ffffff" stop-opacity="1"></stop></linearGradient></defs><defs><linearGradient id="grad2_0" x1="0%" y1="0%" x2="56.3%" y2="100%"><stop offset="14.444444444444446%" stop-color="#3c56fa" stop-opacity="1"></stop><stop offset="85.55555555555554%" stop-color="#3c56fa" stop-opacity="1"></stop></linearGradient></defs><defs><linearGradient id="grad2_1" x1="0%" y1="0%" x2="56.3%" y2="100%"><stop offset="14.444444444444446%" stop-color="#6b6cfc" stop-opacity="1"></stop><stop offset="85.55555555555554%" stop-color="#3c56fa" stop-opacity="1"></stop></linearGradient></defs><defs><linearGradient id="grad2_2" x1="0%" y1="0%" x2="56.3%" y2="100%"><stop offset="14.444444444444446%" stop-color="#6b6cfc" stop-opacity="1"></stop><stop offset="85.55555555555554%" stop-color="#8b83fd" stop-opacity="1"></stop></linearGradient></defs><defs><linearGradient id="grad2_3" x1="0%" y1="0%" x2="56.3%" y2="100%"><stop offset="14.444444444444446%" stop-color="#a69bfe" stop-opacity="1"></stop><stop offset="85.55555555555554%" stop-color="#8b83fd" stop-opacity="1"></stop></linearGradient></defs><defs><linearGradient id="grad2_4" x1="0%" y1="0%" x2="56.3%" y2="100%"><stop offset="14.444444444444446%" stop-color="#a69bfe" stop-opacity="1"></stop><stop offset="85.55555555555554%" stop-color="#bfb3ff" stop-opacity="1"></stop></linearGradient></defs><defs><linearGradient id="grad2_5" x1="0%" y1="0%" x2="56.3%" y2="100%"><stop offset="14.444444444444446%" stop-color="#d5ccff" stop-opacity="1"></stop><stop offset="85.55555555555554%" stop-color="#bfb3ff" stop-opacity="1"></stop></linearGradient></defs><defs><linearGradient id="grad2_6" x1="0%" y1="0%" x2="56.3%" y2="100%"><stop offset="14.444444444444446%" stop-color="#d5ccff" stop-opacity="1"></stop><stop offset="85.55555555555554%" stop-color="#ebe5ff" stop-opacity="1"></stop></linearGradient></defs><defs><linearGradient id="grad2_7" x1="0%" y1="0%" x2="56.3%" y2="100%"><stop offset="14.444444444444446%" stop-color="#ffffff" stop-opacity="1"></stop><stop offset="85.55555555555554%" stop-color="#ebe5ff" stop-opacity="1"></stop></linearGradient></defs><g transform="translate(960, 0)"><path d="M0 351C-58.7 337.8 -117.5 324.6 -171.5 297C-225.5 269.4 -274.8 227.4 -304 175.5C-333.1 123.6 -342.1 61.8 -351 0L0 0Z" fill="#f5f2ff"></path><path d="M0 307.1C-51.4 295.6 -102.8 284.1 -150.1 259.9C-197.3 235.8 -240.5 199 -266 153.6C-291.5 108.1 -299.3 54.1 -307.1 0L0 0Z" fill="#e0d9ff"></path><path d="M0 263.3C-44.1 253.4 -88.1 243.5 -128.6 222.8C-169.1 202.1 -206.1 170.6 -228 131.6C-249.8 92.7 -256.5 46.3 -263.2 0L0 0Z" fill="#cac0ff"></path><path d="M0 219.4C-36.7 211.1 -73.4 202.9 -107.2 185.7C-141 168.4 -171.8 142.1 -190 109.7C-208.2 77.2 -213.8 38.6 -219.4 0L0 0Z" fill="#b3a7ff"></path><path d="M0 175.5C-29.4 168.9 -58.7 162.3 -85.7 148.5C-112.8 134.7 -137.4 113.7 -152 87.8C-166.6 61.8 -171 30.9 -175.5 0L0 0Z" fill="#998ffe"></path><path d="M0 131.6C-22 126.7 -44.1 121.7 -64.3 111.4C-84.6 101 -103.1 85.3 -114 65.8C-124.9 46.3 -128.3 23.2 -131.6 0L0 0Z" fill="#7c78fc"></path><path d="M0 87.8C-14.7 84.5 -29.4 81.2 -42.9 74.3C-56.4 67.4 -68.7 56.9 -76 43.9C-83.3 30.9 -85.5 15.4 -87.7 0L0 0Z" fill="#5661fb"></path><path d="M0 43.9C-7.3 42.2 -14.7 40.6 -21.4 37.1C-28.2 33.7 -34.4 28.4 -38 21.9C-41.6 15.4 -42.8 7.7 -43.9 0L0 0Z" fill="#3c56fa"></path></g><g transform="translate(0, 540)"><path d="M0 -351C69.4 -346.5 138.8 -341.9 175.5 -304C212.2 -266 216.1 -194.7 239.9 -138.5C263.7 -82.3 307.3 -41.1 351 0L0 0Z" fill="#f5f2ff"></path><path d="M0 -307.1C60.7 -303.1 121.5 -299.2 153.6 -266C185.6 -232.8 189.1 -170.4 209.9 -121.2C230.7 -72 268.9 -36 307.1 0L0 0Z" fill="#e0d9ff"></path><path d="M0 -263.2C52.1 -259.8 104.1 -256.4 131.6 -228C159.1 -199.5 162.1 -146 179.9 -103.9C197.8 -61.7 230.5 -30.9 263.3 0L0 0Z" fill="#cac0ff"></path><path d="M0 -219.4C43.4 -216.5 86.8 -213.7 109.7 -190C132.6 -166.3 135.1 -121.7 149.9 -86.6C164.8 -51.4 192.1 -25.7 219.4 0L0 0Z" fill="#b3a7ff"></path><path d="M0 -175.5C34.7 -173.2 69.4 -171 87.7 -152C106.1 -133 108 -97.4 119.9 -69.3C131.8 -41.1 153.7 -20.6 175.5 0L0 0Z" fill="#998ffe"></path><path d="M0 -131.6C26 -129.9 52.1 -128.2 65.8 -114C79.6 -99.8 81 -73 90 -51.9C98.9 -30.9 115.3 -15.4 131.6 0L0 0Z" fill="#7c78fc"></path><path d="M0 -87.7C17.4 -86.6 34.7 -85.5 43.9 -76C53 -66.5 54 -48.7 60 -34.6C65.9 -20.6 76.8 -10.3 87.8 0L0 0Z" fill="#5661fb"></path><path d="M0 -43.9C8.7 -43.3 17.4 -42.7 21.9 -38C26.5 -33.3 27 -24.3 30 -17.3C33 -10.3 38.4 -5.1 43.9 0L0 0Z" fill="#3c56fa"></path></g></svg>